<svg width="331" height="299" viewBox="0 0 331 299" fill="none" xmlns="http://www.w3.org/2000/svg">
    <rect x="22.3923" y="58.1476" width="35.5566" height="35.6331"
        transform="rotate(-14.255 22.3923 58.1476)" stroke="#171212" />
    <rect x="46.0451" y="1.46511" width="35.5566" height="35.6331"
        transform="rotate(4.15211 46.0451 1.46511)" stroke="#171212" />
    <rect x="86.4969" y="29.7206" width="35.5566" height="35.6331" 
        transform="rotate(-0.360523 86.4969 29.7206)" stroke="#171212" />
    <rect x="158.392" y="85.1476" width="35.5566" height="35.6331"
        transform="rotate(-14.255 158.392 85.1476)" stroke="#171212" />
    <rect x="203.392" y="117.148" width="35.5566" height="35.6331"
        transform="rotate(-14.255 203.392 117.148)" stroke="#171212" />
    <rect x="254.392" y="127.148" width="35.5566" height="35.6331"
        transform="rotate(-14.255 254.392 127.148)" stroke="#171212" />
    <rect x="286.392" y="174.148" width="35.5566" height="35.6331"
        transform="rotate(-14.255 286.392 174.148)" stroke="#171212" />
    <rect x="212.392" y="64.1476" width="35.5566" height="35.6331"
        transform="rotate(-14.255 212.392 64.1476)" stroke="#171212" />
    <rect x="145.392" y="34.1476" width="35.5566" height="35.6331"
        transform="rotate(-14.255 145.392 34.1476)" stroke="#171212" />
    <rect x="161.277" y="139.489" width="35.5566" height="35.6331"
        transform="rotate(1.26621 161.277 139.489)" stroke="#171212" />
    <rect x="220.277" y="163.489" width="35.5566" height="35.6331"
        transform="rotate(1.26621 220.277 163.489)" stroke="#171212" />
    <rect x="247.3" y="219.676" width="35.5566" height="35.6331"
        transform="rotate(-36.9543 247.3 219.676)" stroke="#171212" />
    <rect x="201.853" y="257.838" width="35.5566" height="35.6331"
        transform="rotate(-57.3921 201.853 257.838)" stroke="#171212" />
    <rect x="99.3676" y="92.609" width="35.5566" height="35.6331"
        transform="rotate(-18.4305 99.3676 92.609)" stroke="#171212" />
    <rect x="106.359" y="146.515" width="35.5566" height="35.6331"
        transform="rotate(-19.9906 106.359 146.515)" stroke="#171212" />
    <rect x="165.336" y="201.314" width="35.5566" height="35.6331"
        transform="rotate(-24.914 165.336 201.314)" stroke="#171212" />
    <rect x="151.336" y="265.314" width="35.5566" height="35.6331"
        transform="rotate(-24.914 151.336 265.314)" stroke="#171212" />
    <rect x="112.339" y="207.899" width="35.5566" height="35.6331"
        transform="rotate(-24.1728 112.339 207.899)" stroke="#171212" />
    <rect x="75.7328" y="261.089" width="34.8819" height="35.6331"
        transform="rotate(-33.1856 75.7328 261.089)" stroke="#171212" />
    <rect x="56.923" y="147.571" width="35.5566" height="35.6331"
        transform="rotate(-2.54865 56.923 147.571)" stroke="#171212" />
    <rect x="56.4292" y="198.886" width="35.5566" height="35.6331"
        transform="rotate(-8.82773 56.4292 198.886)" stroke="#171212" />
    <rect x="8.72856" y="157.408" width="35.5566" height="35.6331"
        transform="rotate(11.8555 8.72856 157.408)" stroke="#171212" />
    <rect x="51.2253" y="99.7555" width="35.5566" height="35.6331"
        transform="rotate(-14.255 51.2253 99.7555)" stroke="#171212" />
    <rect x="1.39228" y="112.148" width="35.5566" height="36.4015"
        transform="rotate(-14.255 1.39228 112.148)" stroke="#171212" />
</svg>